<svg xmlns="http://www.w3.org/2000/svg" viewBox="0 0 61.1 64"><defs><style>.cls-1{fill:#fff;}</style></defs><g id="Layer_2" data-name="Layer 2"><g id="Layer_1-2" data-name="Layer 1"><path class="cls-1" d="M30.55,21.51a2.26,2.26,0,0,0-2.25,2.26V49.46a2.26,2.26,0,1,0,4.51,0V23.77A2.26,2.26,0,0,0,30.55,21.51Z"/><path class="cls-1" d="M37.75,23.77V49.46a2.25,2.25,0,1,0,4.5,0V23.77a2.25,2.25,0,1,0-4.5,0Z"/><path class="cls-1" d="M58.85,9.4H42.25V6.25A6.25,6.25,0,0,0,36,0H25.1a6.25,6.25,0,0,0-6.25,6.25V9.4H2.25a2.26,2.26,0,0,0,0,4.51h4L9.2,55.41A9.27,9.27,0,0,0,18.42,64H42.68a9.27,9.27,0,0,0,9.22-8.59l3-41.5h4a2.26,2.26,0,0,0,0-4.51ZM23.36,6.25A1.74,1.74,0,0,1,25.1,4.51H36a1.74,1.74,0,0,1,1.74,1.74V9.4H23.36Zm24,48.84a4.75,4.75,0,0,1-4.73,4.4H18.42a4.76,4.76,0,0,1-4.73-4.4L10.77,13.91H50.34Z"/><path class="cls-1" d="M21.1,21.51a2.26,2.26,0,0,0-2.25,2.26V49.46a2.26,2.26,0,1,0,4.51,0V23.77A2.26,2.26,0,0,0,21.1,21.51Z"/></g></g></svg>